<svg width="24" height="24" viewBox="0 0 24 24" fill="none" xmlns="http://www.w3.org/2000/svg">
<path d="M11.5251 2.295C11.5689 2.20646 11.6366 2.13193 11.7205 2.07983C11.8045 2.02772 11.9013 2.00011 12.0001 2.00011C12.0989 2.00011 12.1957 2.02772 12.2796 2.07983C12.3636 2.13193 12.4313 2.20646 12.4751 2.295L14.7851 6.974C14.9371 7.28212 15.1616 7.54869 15.4395 7.75077C15.7173 7.95284 16.0401 8.08436 16.3801 8.134L21.5461 8.89C21.644 8.90418 21.7359 8.94547 21.8116 9.0092C21.8872 9.07293 21.9435 9.15655 21.9741 9.25061C22.0047 9.34467 22.0084 9.44541 21.9847 9.54144C21.961 9.63747 21.9109 9.72495 21.8401 9.794L18.1041 13.432C17.8575 13.672 17.673 13.9683 17.5666 14.2955C17.4601 14.6227 17.4349 14.9709 17.4931 15.31L18.3751 20.45C18.3924 20.5478 18.3818 20.6486 18.3446 20.7407C18.3074 20.8328 18.245 20.9126 18.1646 20.971C18.0842 21.0294 17.9891 21.064 17.89 21.0709C17.7908 21.0778 17.6918 21.0567 17.6041 21.01L12.9861 18.582C12.6819 18.4221 12.3433 18.3385 11.9996 18.3385C11.6559 18.3385 11.3173 18.4221 11.0131 18.582L6.39609 21.01C6.30842 21.0564 6.20949 21.0773 6.11054 21.0703C6.0116 21.0632 5.91661 21.0286 5.83639 20.9702C5.75616 20.9119 5.69392 20.8322 5.65675 20.7402C5.61957 20.6483 5.60895 20.5477 5.62609 20.45L6.50709 15.311C6.56546 14.9717 6.54033 14.6233 6.43388 14.296C6.32742 13.9686 6.14284 13.6721 5.89609 13.432L2.16009 9.795C2.08868 9.72603 2.03808 9.6384 2.01405 9.54207C1.99002 9.44575 1.99353 9.34462 2.02417 9.25019C2.05481 9.15576 2.11136 9.07184 2.18737 9.00798C2.26338 8.94413 2.35579 8.9029 2.45409 8.889L7.61909 8.134C7.9594 8.08466 8.28261 7.95329 8.56083 7.7512C8.83905 7.54911 9.06393 7.28237 9.21609 6.974L11.5251 2.295Z" stroke="black" stroke-width="2" stroke-linecap="round" stroke-linejoin="round"/>
</svg>
